<svg xmlns="http://www.w3.org/2000/svg" viewBox="0 0 64 64" role="img" aria-label="Pokemon egg">
  <defs>
    <linearGradient id="eggShell" x1="0%" y1="0%" x2="0%" y2="100%">
      <stop offset="0%" stop-color="#fffaf2"/>
      <stop offset="100%" stop-color="#efe4d1"/>
    </linearGradient>
    <linearGradient id="eggShadow" x1="0%" y1="0%" x2="100%" y2="100%">
      <stop offset="0%" stop-color="rgba(0,0,0,0.15)"/>
      <stop offset="100%" stop-color="rgba(0,0,0,0)"/>
    </linearGradient>
  </defs>
  <ellipse cx="32" cy="34" rx="20" ry="24" fill="url(#eggShell)" stroke="#d2c3aa" stroke-width="2"/>
  <path d="M18 25c4-8 11-12 14-12s10 4 14 12c-5 2-10 3-14 3s-9-1-14-3Z" fill="rgba(255,255,255,0.5)"/>
  <path d="M18 42c5 5 10 7 14 7s9-2 14-7c-4 3-9 5-14 5s-10-2-14-5Z" fill="url(#eggShadow)"/>
  <circle cx="25" cy="33" r="2.6" fill="#d9cbb6"/>
  <circle cx="39" cy="39" r="2.1" fill="#d9cbb6"/>
  <circle cx="34" cy="27" r="1.9" fill="#d9cbb6"/>
</svg>
